<svg width="25" height="25" viewBox="0 0 25 25" fill="none" xmlns="http://www.w3.org/2000/svg">
<g clip-path="url(#clip0_546_2442)">
<path d="M12.1073 13.6223C12.4706 13.6223 12.8191 13.478 13.076 13.2211C13.333 12.9642 13.4773 12.6157 13.4773 12.2523C13.4773 11.889 13.333 11.5405 13.076 11.2836C12.8191 11.0267 12.4706 10.8823 12.1073 10.8823C11.744 10.8823 11.3955 11.0267 11.1386 11.2836C10.8816 11.5405 10.7373 11.889 10.7373 12.2523C10.7373 12.6157 10.8816 12.9642 11.1386 13.2211C11.3955 13.478 11.744 13.6223 12.1073 13.6223ZM12.1073 19.8943C12.4706 19.8943 12.8191 19.75 13.076 19.4931C13.333 19.2362 13.4773 18.8877 13.4773 18.5243C13.4773 18.161 13.333 17.8125 13.076 17.5556C12.8191 17.2987 12.4706 17.1543 12.1073 17.1543C11.744 17.1543 11.3955 17.2987 11.1386 17.5556C10.8816 17.8125 10.7373 18.161 10.7373 18.5243C10.7373 18.8877 10.8816 19.2362 11.1386 19.4931C11.3955 19.75 11.744 19.8943 12.1073 19.8943ZM12.1073 7.35035C12.4706 7.35035 12.8191 7.20601 13.076 6.94909C13.333 6.69216 13.4773 6.3437 13.4773 5.98035C13.4773 5.617 13.333 5.26854 13.076 5.01161C12.8191 4.75469 12.4706 4.61035 12.1073 4.61035C11.744 4.61035 11.3955 4.75469 11.1386 5.01161C10.8816 5.26854 10.7373 5.617 10.7373 5.98035C10.7373 6.3437 10.8816 6.69216 11.1386 6.94909C11.3955 7.20601 11.744 7.35035 12.1073 7.35035Z" fill="white"/>
</g>
<defs>
<clipPath id="clip0_546_2442">
<rect width="24" height="24" fill="white" transform="translate(0.109375 0.25)"/>
</clipPath>
</defs>
</svg>
